<?xml version="1.0" encoding="UTF-8" standalone="no"?>
<svg
   width="247"
   height="247"
   viewBox="0 0 247 247"
   fill="none"
   version="1.1"
   id="svg42"
   xmlns="http://www.w3.org/2000/svg"
   xmlns:svg="http://www.w3.org/2000/svg">
  <defs
     id="defs42">
    <linearGradient
       id="paint0_linear_8_5318"
       x1="24.2964"
       y1="32.464901"
       x2="85.775299"
       y2="63.8853"
       gradientUnits="userSpaceOnUse"
       gradientTransform="matrix(2.0530909,0,0,2.1247016,-72.463811,-11.018081)">
      <stop
         stop-color="#195568"
         id="stop30" />
      <stop
         offset="0.3"
         stop-color="#3AAA35"
         id="stop31" />
      <stop
         offset="0.31"
         stop-color="#42AB32"
         id="stop32" />
      <stop
         offset="0.34"
         stop-color="#73B225"
         id="stop33" />
      <stop
         offset="0.37"
         stop-color="#9DB919"
         id="stop34" />
      <stop
         offset="0.41"
         stop-color="#C0BE10"
         id="stop35" />
      <stop
         offset="0.44"
         stop-color="#DAC209"
         id="stop36" />
      <stop
         offset="0.48"
         stop-color="#EDC504"
         id="stop37" />
      <stop
         offset="0.52"
         stop-color="#F9C701"
         id="stop38" />
      <stop
         offset="0.56"
         stop-color="#FDC800"
         id="stop39" />
      <stop
         offset="0.67"
         stop-color="#F18F34"
         id="stop40" />
      <stop
         offset="0.89"
         stop-color="#E95F32"
         id="stop41" />
      <stop
         offset="1"
         stop-color="#E3312D"
         id="stop42" />
    </linearGradient>
  </defs>
  <path
     id="rect57"
     style="fill:#ffffff;stroke-width:2.12007"
     d="M 33.521561,77.239929 H 80.108448 V 134.44807 H 33.521561 Z" />
  <path
     d="m 34.427903,65.479038 c 23.681287,-42.359572 23.697779,-42.388031 0,-0.01572 z M 13.049478,103.71984 -62.918504,158.14269 Z M 77.184548,65.479038 H 34.427903 l -21.378425,38.240802 21.378425,38.24059 h 42.756645 l 21.378219,-38.24059 z m -9.445656,56.762042 3.708088,8.00757 h -6.881961 l -3.006136,-6.4627 c -0.808712,0.12599 -1.617425,0.12599 -2.487319,0.12599 h -5.325513 c -11.398555,0 -17.654939,-6.63608 -17.654939,-20.14493 0,-13.508852 6.302168,-20.208036 17.654939,-20.208036 h 5.325513 c 11.337784,0 17.655144,6.636293 17.655144,20.208036 0,9.56817 -3.128089,15.73129 -8.972418,18.47407 z m 2.090663,-18.47407 c 0,6.39981 -1.556449,10.27739 -5.096593,12.01136 l -3.418191,-7.47172 H 54.43281 l 3.937007,8.54364 h -4.638959 c -7.583912,0 -10.818762,-3.8778 -10.818762,-13.099 0,-9.221207 3.296032,-13.162104 10.818762,-13.162104 h 5.325513 c 7.522935,0 10.773184,3.940897 10.773184,13.162104 z"
     fill="url(#paint0_linear_8_5318)"
     id="path1"
     style="fill:url(#paint0_linear_8_5318);stroke-width:2.08859"  />
  <path
     fill="#ffffff"
     stroke="none"
     d="m 58.434738,156.60864 q -0.346667,3.12001 -2.373336,4.90668 -2.026669,1.76 -5.17334,1.76 -2.613337,0 -4.480006,-1.33334 -1.866669,-1.33333 -2.74667,-3.41334 -0.853334,-2.10666 -0.853334,-4.66667 0,-2.61333 0.880001,-4.69334 0.880001,-2.08 2.773337,-3.38667 1.920002,-1.33333 4.560005,-1.33333 3.333338,0 5.17334,1.84 1.866669,1.84 2.240003,5.22667 l -4.480006,0.29334 q -0.05333,-3.92001 -3.06667,-3.92001 -3.306671,0 -3.306671,6.16001 0,0.88 0.05333,1.57333 0.05333,0.66667 0.266667,1.49334 0.213334,0.82667 0.560001,1.38667 0.373334,0.53333 1.040001,0.90667 0.666668,0.37333 1.600002,0.37333 1.386669,0 2.160003,-0.98667 0.800001,-0.98667 1.013335,-2.45333 z m 14.826681,-0.26666 q 0,2.96 -1.813336,4.96 -1.786669,1.97334 -4.720006,1.97334 -3.013337,0 -4.720006,-2.00001 -1.706669,-2 -1.706669,-5.06667 0,-3.04 1.706669,-5.01334 1.706669,-2 4.720006,-2 3.066671,0 4.800006,2.02667 1.733336,2 1.733336,5.12001 z m -4.213339,0.0267 q 0,-0.66667 -0.02667,-0.96 0,-0.29333 -0.05333,-0.96 -0.05333,-0.66667 -0.213334,-1.01334 -0.133333,-0.37333 -0.373333,-0.8 -0.213334,-0.45333 -0.640001,-0.64 -0.426667,-0.21333 -0.986668,-0.21333 -0.746668,0 -1.253335,0.4 -0.480001,0.4 -0.693334,1.12 -0.186667,0.72 -0.240001,1.28 -0.05333,0.56 -0.05333,1.33334 0,0.88 0.02667,1.44 0.05333,0.56 0.24,1.46667 0.186667,0.88 0.666668,1.36 0.506667,0.48 1.280001,0.48 0.773335,0 1.280002,-0.4 0.506667,-0.42667 0.720001,-1.17333 0.213333,-0.74667 0.266667,-1.33334 0.05333,-0.58667 0.05333,-1.38667 z m 25.466724,6.64001 h -3.920005 v -8.18668 q 0,-0.85333 -0.08,-1.28 -0.05333,-0.45333 -0.48,-0.8 -0.400001,-0.37333 -1.200002,-0.37333 -0.586667,0 -0.986668,0.26666 -0.4,0.24 -0.586667,0.53334 -0.186667,0.26666 -0.293334,0.85333 -0.08,0.58667 -0.106667,0.88 0,0.29334 0,0.93334 v 7.17334 h -3.920005 v -8.10668 q 0,-1.2 -0.346667,-1.86667 -0.346667,-0.69333 -1.413335,-0.69333 -0.506667,0 -0.880001,0.13333 -0.346667,0.13334 -0.560001,0.48 -0.186667,0.32 -0.32,0.56001 -0.106667,0.21333 -0.16,0.77333 -0.05333,0.56 -0.05333,0.74667 0,0.18666 0,0.8 v 7.17334 h -3.920005 v -13.54668 h 3.733338 v 2.08 h 0.05333 q 1.013334,-2.34667 3.760005,-2.34667 2.506669,0 3.706671,2.34667 0.506667,-1.14667 1.546668,-1.73334 1.066668,-0.61333 2.400004,-0.61333 2.000002,0 3.013337,1.09333 1.040001,1.06667 1.040001,3.06667 z m 15.200006,-6.77334 q 0,1.89333 -0.50667,3.41334 -0.48,1.52 -1.76,2.58667 -1.28,1.04 -3.22667,1.04 -1.41333,0 -2.26667,-0.53334 -0.85333,-0.56 -1.6,-1.81333 -0.32,0.37333 -0.879998,2.08 h -2.133338 v -18.29336 h 3.920006 v 6.45335 h 0.10666 q 0.96001,-1.97334 3.30667,-1.97334 1.38667,0 2.40001,0.64 1.04,0.64 1.57333,1.70667 0.56,1.06667 0.8,2.24 0.26667,1.17334 0.26667,2.45334 z m -4.08,0 q 0,-0.56 -0.0267,-0.88 0,-0.32 -0.0533,-0.90667 -0.0533,-0.61333 -0.18667,-0.98667 -0.13334,-0.37333 -0.37334,-0.77333 -0.21333,-0.4 -0.61333,-0.58667 -0.4,-0.21333 -0.90667,-0.21333 -2.16,0 -2.16,3.49333 v 1.94667 q 0,3.20001 2.10667,3.20001 0.61333,0 1.06667,-0.32 0.45333,-0.32 0.66667,-0.72 0.21333,-0.4 0.32,-1.06667 0.13333,-0.69334 0.13333,-1.09334 0.0267,-0.42666 0.0267,-1.09333 z m 10.00003,-8.00001 h -3.92 v -3.78667 h 3.92 z m 0,14.77335 h -3.92 v -13.54668 h 3.92 z m 14.61336,0 h -3.92001 v -7.97334 q 0,-0.58667 -0.0533,-0.98667 -0.0533,-0.4 -0.21333,-0.82667 -0.16,-0.45333 -0.56,-0.66667 -0.37334,-0.24 -0.96,-0.24 -2.10667,0 -2.10667,3.41334 v 7.28001 h -3.92001 v -13.54668 h 3.70667 v 2.29333 h 0.0533 q 1.17333,-2.56 3.89333,-2.56 1.25334,0 2.08001,0.4 0.85333,0.37333 1.25333,1.14667 0.42667,0.77333 0.58667,1.65333 0.16,0.85334 0.16,2.05334 z m 14.80005,0 h -3.89334 q -0.24,-0.98667 -0.18667,-2.10667 -0.85333,1.22667 -1.86667,1.81334 -0.98666,0.56 -2.45333,0.56 -1.89334,0 -3.09334,-0.98667 -1.17334,-1.01334 -1.17334,-2.85334 0,-1.25333 0.56001,-2.16 0.56,-0.93333 1.46666,-1.36 0.90667,-0.45334 2.02667,-0.77334 1.12,-0.32 2.24001,-0.37333 1.12,-0.08 2.10667,-0.21333 v -0.32 q 0,-1.22667 -0.40001,-1.81334 -0.37333,-0.61333 -1.54666,-0.61333 -0.98667,0 -1.68001,0.50666 -0.66666,0.50667 -0.66666,1.46667 l -3.70667,-0.34667 q 0.18666,-1.54666 1.22666,-2.53333 1.06667,-1.01334 2.34667,-1.36 1.30667,-0.34667 2.88001,-0.34667 2.82667,0 4.29334,1.22667 0.4,0.32 0.66666,0.72 0.26667,0.4 0.37334,0.8 0.10666,0.4 0.16,0.88 0.08,0.45333 0.0533,0.90667 0,0.42667 0,0.93333 v 6.32001 q 0,1.2 0.26667,2.02667 z m -4.26667,-6.48001 q -0.77334,0.08 -1.33334,0.18667 -0.53333,0.10667 -1.30667,0.37333 -0.77333,0.24 -1.2,0.74667 -0.4,0.48 -0.4,1.17334 0,0.8 0.45333,1.30666 0.48,0.48 1.28001,0.48 1.25333,0 1.86666,-0.98666 0.64001,-0.98667 0.64001,-2.32001 z m 14.5867,6.45334 q -1.46667,0.29334 -2.45333,0.29334 -2.69334,0 -3.65334,-1.01334 -0.93334,-1.04 -0.93334,-3.73334 v -5.97334 h -2.21333 v -3.12 h 2.37333 l 0.34667,-3.97334 3.41334,-0.26667 v 4.24001 h 2.90667 v 3.12 h -2.90667 v 5.62668 q 0,1.09333 0.26666,1.49333 0.29334,0.4 1.33334,0.4 0.50667,0 1.52,-0.0533 z m 14.42666,-6.64 q 0,2.96 -1.81333,4.96 -1.78667,1.97334 -4.72001,1.97334 -3.01333,0 -4.72,-2.00001 -1.70667,-2 -1.70667,-5.06667 0,-3.04 1.70667,-5.01334 1.70667,-2 4.72,-2 3.06667,0 4.80001,2.02667 1.73333,2 1.73333,5.12001 z m -4.21333,0.0267 q 0,-0.66667 -0.0267,-0.96 0,-0.29333 -0.0533,-0.96 -0.0533,-0.66667 -0.21334,-1.01334 -0.13333,-0.37333 -0.37333,-0.8 -0.21334,-0.45333 -0.64,-0.64 -0.42667,-0.21333 -0.98667,-0.21333 -0.74667,0 -1.25334,0.4 -0.48,0.4 -0.69333,1.12 -0.18667,0.72 -0.24,1.28 -0.0533,0.56 -0.0533,1.33334 0,0.88 0.0267,1.44 0.0533,0.56 0.24,1.46667 0.18667,0.88 0.66667,1.36 0.50667,0.48 1.28,0.48 0.77334,0 1.28,-0.4 0.50667,-0.42667 0.72001,-1.17333 0.21333,-0.74667 0.26666,-1.33334 0.0533,-0.58667 0.0533,-1.38667 z m 13.7867,-3.2 h -0.26667 q -0.8,0 -1.38666,0.29333 -0.58667,0.26667 -0.90667,0.69334 -0.32,0.42666 -0.50667,1.09333 -0.18667,0.66667 -0.24,1.25334 -0.0533,0.56 -0.0533,1.33333 v 5.17334 h -3.92001 v -13.54668 h 3.65334 v 2.53333 h 0.0533 q 0.77334,-2.8 2.69334,-2.8 0.29333,0 0.88,0.0533 z m 5.60001,-4.93334 h -3.92 v -3.78667 h 3.92 z m 0,14.77335 h -3.92 v -13.54668 h 3.92 z m 14.98669,-5.09334 q -0.24,2.48 -1.94667,3.92001 -1.68,1.44 -4.21333,1.44 -3.01334,0 -4.77334,-1.92001 -1.76001,-1.94666 -1.76001,-4.98667 0,-3.17334 1.81334,-5.17334 1.81334,-2 4.96001,-2 2.37333,0 4.05334,1.44 1.68,1.41334 1.86666,3.76001 l -3.73333,0.21333 q 0,-1.01333 -0.53334,-1.70667 -0.53333,-0.72 -1.52,-0.72 -2.42667,0 -2.42667,3.86667 0,0.85334 0.0533,1.36 0.0533,0.50667 0.24,1.22667 0.18667,0.69334 0.66667,1.06667 0.50667,0.34667 1.30667,0.34667 0.96,0 1.52,-0.66667 0.58667,-0.66667 0.69334,-1.68 z m 13.44004,0.74667 q 0,2.32 -1.78667,3.46667 -1.78667,1.14667 -4.24,1.14667 -5.22668,0 -6.18668,-4.00001 l 3.38667,-0.48 q 0.18667,0.96 1.04001,1.38667 0.85333,0.42667 1.94667,0.42667 0.8,0 1.57333,-0.29334 0.8,-0.32 0.8,-0.98666 0,-0.61334 -0.4,-0.82667 -0.4,-0.21334 -1.12,-0.32 -0.08,0 -0.26667,-0.0267 -0.8,-0.10667 -1.25333,-0.16 -0.42667,-0.08 -1.22667,-0.24 -0.77333,-0.18667 -1.22667,-0.37333 -0.45333,-0.18667 -1.04,-0.53334 -0.58667,-0.34666 -0.90667,-0.74666 -0.32,-0.42667 -0.56,-1.01334 -0.21333,-0.61333 -0.21333,-1.36 0,-2.29334 1.68,-3.41334 1.68,-1.12 4.10667,-1.12 4.02667,0 5.33334,3.54667 l -2.90667,0.77334 q -0.48,-1.81334 -2.64,-1.81334 -2.02667,0 -2.02667,1.2 0,0.58667 0.58667,0.90667 0.61333,0.29333 1.52,0.37333 0.90667,0.0533 1.94667,0.26667 1.06667,0.21333 1.97333,0.56 0.90667,0.34667 1.49334,1.28 0.61333,0.93334 0.61333,2.37334 z"
     id="text1"
     aria-label="Combinatorics" />
  <path
     fill="#ffffff"
     stroke="none"
     d="m 124.16658,119.01551 h -7.29485 v -4.46872 h -0.10726 q -1.931,4.98237 -7.77759,4.98237 -4.39836,0 -6.22207,-2.26005 -1.77008,-2.26005 -1.77008,-6.62604 V 92.922249 h 7.88487 v 16.436701 q 0,0.97593 0.0537,1.59231 0.10728,0.61637 0.37546,1.28411 0.32184,0.61638 0.91186,0.92457 0.64366,0.30819 1.6628,0.30819 1.44824,0 2.41373,-0.56502 0.9655,-0.56501 1.34096,-1.64366 0.42912,-1.07866 0.53638,-2.00323 0.10728,-0.92456 0.10728,-2.31141 V 92.922249 h 7.88487 z m 13.73151,-28.456036 h -7.88486 v -7.293787 h 7.88486 z m 0,28.456036 h -7.88486 V 92.922249 h 7.88486 z m 28.42843,-26.093261 -9.27946,26.093261 h -6.27571 l -9.3331,-26.093261 h 8.36761 l 5.25657,16.539431 5.31022,-16.539431 z M 194.11125,107.253 h -17.48616 q 0,0.25683 -0.0537,0.77047 0,0.51364 0,0.82184 0,2.26004 1.44824,3.80099 1.44824,1.48957 3.80834,1.48957 1.87735,0 3.32559,-1.18139 1.50188,-1.18139 1.50188,-2.92779 l 7.29484,0.51365 q 0,1.07866 -1.07277,2.72233 -1.77008,3.03052 -4.72019,4.67418 -2.95012,1.59231 -6.59754,1.59231 -6.06115,0 -9.76222,-3.64689 -3.70105,-3.69826 -3.70105,-9.55384 0,-6.00967 3.54015,-9.964746 3.54013,-3.955082 9.70857,-3.955082 6.2757,0 9.49402,4.109176 3.27194,4.109172 3.27194,10.324312 z m -7.88485,-4.46873 q -0.32184,-5.444657 -4.55928,-5.444657 -4.61291,0 -5.09567,5.444657 z m 27.30205,-2.72233 h -0.53639 q -1.60916,0 -2.7892,0.56501 -1.18004,0.51365 -1.82371,1.33548 -0.64366,0.82184 -1.01913,2.10595 -0.37547,1.28413 -0.48275,2.41415 -0.10728,1.07866 -0.10728,2.56824 v 9.96474 h -7.88486 V 92.922249 h 7.34848 v 4.879647 h 0.10728 q 1.55551,-5.393294 5.41749,-5.393294 0.59002,0 1.77007,0.10273 z"
     id="text42"
     aria-label="uiver&#10;" />
  <path
     fill="#ffffff"
     stroke="none"
     d="m 164.69295,170.44716 h -4.58667 v 14.66668 h -4.26667 v -14.66668 h -4.64001 v -3.62667 h 13.49335 z m 14.24004,8.00001 q 0,2.96 -1.81333,4.96001 -1.78667,1.97333 -4.72001,1.97333 -3.01334,0 -4.72,-2 -1.70667,-2 -1.70667,-5.06667 0,-3.04001 1.70667,-5.01334 1.70666,-2.00001 4.72,-2.00001 3.06667,0 4.80001,2.02667 1.73333,2.00001 1.73333,5.12001 z m -4.21334,0.0267 q 0,-0.66667 -0.0267,-0.96001 0,-0.29333 -0.0533,-0.96 -0.0533,-0.66666 -0.21333,-1.01333 -0.13333,-0.37333 -0.37333,-0.8 -0.21334,-0.45334 -0.64,-0.64 -0.42667,-0.21334 -0.98667,-0.21334 -0.74667,0 -1.25334,0.4 -0.48,0.4 -0.69333,1.12001 -0.18667,0.72 -0.24,1.28 -0.0533,0.56 -0.0533,1.33333 0,0.88 0.0267,1.44 0.0533,0.56 0.24,1.46667 0.18667,0.88 0.66667,1.36 0.50667,0.48 1.28,0.48 0.77334,0 1.28,-0.4 0.50667,-0.42666 0.72,-1.17333 0.21334,-0.74667 0.26667,-1.33334 0.0533,-0.58666 0.0533,-1.38666 z m 18.61339,-0.0267 q 0,2.96 -1.81334,4.96001 -1.78667,1.97333 -4.72001,1.97333 -3.01333,0 -4.72,-2 -1.70667,-2 -1.70667,-5.06667 0,-3.04001 1.70667,-5.01334 1.70667,-2.00001 4.72,-2.00001 3.06667,0 4.80001,2.02667 1.73334,2.00001 1.73334,5.12001 z m -4.21334,0.0267 q 0,-0.66667 -0.0267,-0.96001 0,-0.29333 -0.0533,-0.96 -0.0533,-0.66666 -0.21334,-1.01333 -0.13333,-0.37333 -0.37333,-0.8 -0.21333,-0.45334 -0.64,-0.64 -0.42667,-0.21334 -0.98667,-0.21334 -0.74667,0 -1.25333,0.4 -0.48,0.4 -0.69334,1.12001 -0.18667,0.72 -0.24,1.28 -0.0533,0.56 -0.0533,1.33333 0,0.88 0.0267,1.44 0.0533,0.56 0.24001,1.46667 0.18666,0.88 0.66666,1.36 0.50667,0.48 1.28,0.48 0.77334,0 1.28001,-0.4 0.50666,-0.42666 0.72,-1.17333 0.21333,-0.74667 0.26666,-1.33334 0.0533,-0.58666 0.0533,-1.38666 z m 10.32003,6.64 h -3.92 v -18.29335 h 3.92 z m 14.0267,-4.34667 q 0,2.32001 -1.78667,3.46667 -1.78667,1.14667 -4.24001,1.14667 -5.22667,0 -6.18667,-4 l 3.38667,-0.48 q 0.18666,0.96 1.04,1.38666 0.85333,0.42667 1.94667,0.42667 0.8,0 1.57333,-0.29333 0.8,-0.32 0.8,-0.98667 0,-0.61333 -0.4,-0.82667 -0.4,-0.21333 -1.12,-0.32 -0.08,0 -0.26666,-0.0267 -0.80001,-0.10667 -1.25334,-0.16001 -0.42667,-0.08 -1.22667,-0.24 -0.77333,-0.18666 -1.22667,-0.37333 -0.45333,-0.18667 -1.04,-0.53333 -0.58666,-0.34667 -0.90666,-0.74667 -0.32001,-0.42667 -0.56001,-1.01334 -0.21333,-0.61333 -0.21333,-1.36 0,-2.29333 1.68,-3.41333 1.68,-1.12001 4.10667,-1.12001 4.02668,0 5.33334,3.54667 l -2.90667,0.77334 q -0.48,-1.81334 -2.64,-1.81334 -2.02667,0 -2.02667,1.20001 0,0.58666 0.58667,0.90666 0.61333,0.29334 1.52,0.37334 0.90667,0.0533 1.94667,0.26666 1.06667,0.21334 1.97334,0.56 0.90666,0.34667 1.49333,1.28001 0.61334,0.93333 0.61334,2.37333 z"
     id="text2"
     aria-label="Tools" />
</svg>
